<svg width="8" height="8" viewBox="0 0 8 8" fill="none" xmlns="http://www.w3.org/2000/svg">
<g clip-path="url(#clip0_8_599)">
<path d="M3.99992 1.5C2.33325 1.5 0.909919 2.53667 0.333252 4C0.909919 5.46333 2.33325 6.5 3.99992 6.5C5.66659 6.5 7.08992 5.46333 7.66659 4C7.08992 2.53667 5.66659 1.5 3.99992 1.5ZM3.99992 5.66667C3.07992 5.66667 2.33325 4.92 2.33325 4C2.33325 3.08 3.07992 2.33333 3.99992 2.33333C4.91992 2.33333 5.66659 3.08 5.66659 4C5.66659 4.92 4.91992 5.66667 3.99992 5.66667ZM3.99992 3C3.44659 3 2.99992 3.44667 2.99992 4C2.99992 4.55333 3.44659 5 3.99992 5C4.55325 5 4.99992 4.55333 4.99992 4C4.99992 3.44667 4.55325 3 3.99992 3Z" fill="white" fill-opacity="0.27"/>
</g>
<defs>
<clipPath id="clip0_8_599">
<rect width="8" height="8" fill="white"/>
</clipPath>
</defs>
</svg>
