<svg width="63" height="16" viewBox="0 0 63 16" fill="none" xmlns="http://www.w3.org/2000/svg">
<path d="M29.484 4.55761C29.0081 3.46108 28.2617 2.60577 27.2513 2.00658C26.2426 1.38903 24.9713 1.10001 23.4724 1.10001C21.9825 1.10001 20.7076 1.39016 19.6778 2.0051C18.6685 2.60297 17.9158 3.45035 17.4268 4.53407L17.4268 4.53406L17.4248 4.53872C16.9556 5.60745 16.7292 6.8463 16.7292 8.2424C16.7292 9.28644 16.855 10.2483 17.1125 11.1239L17.1125 11.1239L17.1145 11.1304C17.3867 12.0117 17.7989 12.7817 18.356 13.4316L18.3559 13.4316L18.3593 13.4355C18.923 14.0797 19.6358 14.5761 20.4857 14.9291L20.4857 14.9292L20.4918 14.9316C21.3503 15.275 22.3416 15.4392 23.4542 15.4392C24.5781 15.4392 25.5757 15.2753 26.4348 14.9316C27.2896 14.5897 28.0056 14.0908 28.5706 13.4316C29.1281 12.7813 29.535 12.0161 29.7953 11.144L29.7959 11.1421C30.0534 10.2665 30.1792 9.30458 30.1792 8.26054C30.1792 6.86478 29.953 5.62617 29.484 4.55761ZM29.484 4.55761C29.4842 4.55804 29.4844 4.55847 29.4846 4.5589L29.0258 4.75786M29.484 4.55761C29.4839 4.55736 29.4838 4.55712 29.4837 4.55687L29.0258 4.75786M29.0258 4.75786C28.5903 3.75364 27.9127 2.9793 26.9932 2.43484L29.3162 11.001C29.5582 10.1782 29.6792 9.26477 29.6792 8.26054C29.6792 6.91755 29.4614 5.74999 29.0258 4.75786ZM45.7434 4.55793C45.2676 3.46125 44.5211 2.60583 43.5106 2.00659C42.502 1.38903 41.2306 1.10001 39.7317 1.10001C38.2419 1.10001 36.9669 1.39016 35.9371 2.0051C34.9278 2.60297 34.1751 3.45035 33.6861 4.53406L33.6841 4.53872C33.2149 5.60745 32.9886 6.8463 32.9886 8.2424C32.9886 9.28644 33.1143 10.2483 33.3718 11.1239L33.3718 11.1239L33.3738 11.1304C33.646 12.0117 34.0582 12.7817 34.6152 13.4316L34.6186 13.4355C35.1823 14.0797 35.8951 14.5761 36.745 14.9291L36.745 14.9292L36.7511 14.9316C37.6096 15.275 38.6009 15.4392 39.7135 15.4392C40.8374 15.4392 41.835 15.2753 42.6941 14.9316C43.549 14.5897 44.2649 14.0908 44.8299 13.4316C45.3874 12.7813 45.7943 12.0161 46.0546 11.144L46.0552 11.1421C46.3127 10.2665 46.4385 9.30458 46.4385 8.26054C46.4385 6.86492 46.2123 5.62641 45.7434 4.55793ZM45.7434 4.55793C45.7436 4.55825 45.7437 4.55858 45.7439 4.55891L45.2852 4.75786M45.7434 4.55793C45.7433 4.55757 45.7431 4.55723 45.743 4.55687L45.2852 4.75786M45.2852 4.75786C45.7207 5.74999 45.9385 6.91755 45.9385 8.26054C45.9385 9.26477 45.8175 10.1782 45.5755 11.001L36.1927 2.43484C37.1243 1.87828 38.304 1.60001 39.7317 1.60001C41.1715 1.60001 42.3451 1.87828 43.2525 2.43484C44.172 2.9793 44.8496 3.75364 45.2852 4.75786ZM12.8873 15.2577H13.3873V14.7577V1.79964V1.29964H12.8873H10.1106H9.6106V1.79964V7.80683V7.81819L9.61112 7.82953C9.62284 8.08751 9.62875 8.35819 9.62875 8.64167V8.65253L9.62922 8.66338C9.63672 8.83587 9.64422 9.01304 9.65172 9.19491L5.4117 1.55696L5.26886 1.29964H4.97455H1H0.5V1.79964V14.7577V15.2577H1H3.75859H4.25859V14.7577V8.76871V8.75784L4.25812 8.74699C4.24604 8.46914 4.23395 8.18523 4.22187 7.89526C4.22187 7.89514 4.22186 7.89502 4.22186 7.89491L4.20374 7.44202L4.19657 7.26273L8.45666 14.9989L8.59918 15.2577H8.89465H12.8873ZM25.6477 10.2984L25.6477 10.2984L25.6459 10.3041C25.4785 10.8272 25.2177 11.1994 24.8783 11.454C24.5528 11.6981 24.0935 11.844 23.4542 11.844C22.8458 11.844 22.3884 11.7011 22.0456 11.452C21.7054 11.1959 21.4388 10.8215 21.2603 10.2971C21.0761 9.74401 20.9779 9.06842 20.9779 8.26054C20.9779 7.45163 21.0764 6.78302 21.2598 6.24367L21.2607 6.24083C21.4406 5.70109 21.7088 5.32168 22.0483 5.06712L22.05 5.06582C22.391 4.80772 22.8519 4.65896 23.4724 4.65896C24.4132 4.65896 24.982 4.96981 25.3154 5.51032L25.3153 5.51034L25.3185 5.5154C25.7085 6.13108 25.9306 7.02913 25.9306 8.26054C25.9306 9.06906 25.8322 9.74509 25.6477 10.2984ZM41.907 10.2984L41.907 10.2984L41.9052 10.3041C41.7378 10.8272 41.477 11.1995 41.1376 11.454C40.8121 11.6981 40.3528 11.844 39.7135 11.844C39.1051 11.844 38.6477 11.7011 38.3049 11.452C37.9647 11.1959 37.6982 10.8216 37.5197 10.2973C37.3355 9.74418 37.2372 9.06852 37.2372 8.26054C37.2372 7.45163 37.3357 6.78302 37.5191 6.24367L37.52 6.24083C37.6999 5.70109 37.9681 5.32168 38.3076 5.06712L38.3093 5.06582C38.6503 4.80772 39.1112 4.65896 39.7317 4.65896C40.6725 4.65896 41.2414 4.96981 41.5747 5.51032L41.5746 5.51034L41.5778 5.5154C41.9678 6.13108 42.1899 7.02913 42.1899 8.26054C42.1899 9.06906 42.0915 9.74509 41.907 10.2984ZM61 15.2577H61.8839L61.4286 14.5002L57.2823 7.60141L61.4003 2.09924L61.9987 1.29964H61H57.6062H57.3562L57.2062 1.49964L54.0484 5.71012L54.0482 5.71004L54.0415 5.7195C53.9874 5.79522 53.9328 5.87149 53.8776 5.9483V1.79964V1.29964H53.3776H50.2742H49.7742V1.79964V14.7577V15.2577H50.2742H53.3776H53.8776V14.7577V10.5269L54.3148 10.2402L57.0453 15.0063L57.1894 15.2577H57.4792H61Z" fill="#311943" stroke="#BF8855"/>
</svg>
