<svg width="16" height="16" viewBox="0 0 16 16" fill="none" xmlns="http://www.w3.org/2000/svg">
<g clip-path="url(#clip0_8_695)">
<path d="M10.219 9.2327H9.69954L9.51544 9.05517C10.1598 8.3056 10.5477 7.33248 10.5477 6.27387C10.5477 3.91338 8.63436 2 6.27387 2C3.91338 2 2 3.91338 2 6.27387C2 8.63436 3.91338 10.5477 6.27387 10.5477C7.33248 10.5477 8.3056 10.1598 9.05517 9.51544L9.2327 9.69954V10.219L12.5203 13.5L13.5 12.5203L10.219 9.2327ZM6.27387 9.2327C4.63665 9.2327 3.31504 7.91109 3.31504 6.27387C3.31504 4.63665 4.63665 3.31504 6.27387 3.31504C7.91109 3.31504 9.2327 4.63665 9.2327 6.27387C9.2327 7.91109 7.91109 9.2327 6.27387 9.2327Z" fill="white"/>
</g>
<defs>
<clipPath id="clip0_8_695">
<rect width="16" height="16" fill="white"/>
</clipPath>
</defs>
</svg>
